<svg xmlns="http://www.w3.org/2000/svg" width="256" height="256" viewBox="0 0 100 100"><rect width="100" height="100" rx="50" fill="#086715"></rect><path fill="#fff" d="M32.71 73.53Q25.75 73.53 20.13 70.51Q14.51 67.48 11.29 62.12Q8.07 56.76 8.07 50L8.07 50Q8.07 43.24 11.29 37.88Q14.51 32.52 20.13 29.49Q25.75 26.47 32.77 26.47L32.77 26.47Q38.69 26.47 43.47 28.55Q48.24 30.63 51.49 34.53L51.49 34.53L44.73 40.77Q40.12 35.44 33.30 35.44L33.30 35.44Q29.07 35.44 25.75 37.29Q22.44 39.14 20.59 42.46Q18.73 45.77 18.73 50L18.73 50Q18.73 54.22 20.59 57.54Q22.44 60.86 25.75 62.71Q29.07 64.56 33.30 64.56L33.30 64.56Q40.12 64.56 44.73 59.16L44.73 59.16L51.49 65.41Q48.24 69.37 43.44 71.45Q38.63 73.53 32.71 73.53L32.71 73.53ZM58.58 72.75L58.58 27.25L69.11 27.25L69.11 64.17L91.93 64.17L91.93 72.75L58.58 72.75Z"></path></svg>