<?xml version="1.0" standalone="no"?>
<!DOCTYPE svg PUBLIC "-//W3C//DTD SVG 20010904//EN"
 "http://www.w3.org/TR/2001/REC-SVG-20010904/DTD/svg10.dtd">
<svg version="1.0" xmlns="http://www.w3.org/2000/svg"
 width="1095.000000pt" height="132.000000pt" viewBox="0 0 1095.000000 132.000000"
 preserveAspectRatio="xMidYMid meet">

<g transform="translate(0.000000,132.000000) scale(0.100000,-0.100000)"
fill="#000000" stroke="none">
<path d="M880 720 l0 -310 30 0 30 0 0 310 0 310 -30 0 -30 0 0 -310z"/>
<path d="M2550 905 c0 -69 -4 -125 -8 -125 -5 0 -17 10 -28 21 -29 32 -77 49
-142 49 -76 0 -137 -30 -177 -88 -26 -38 -30 -54 -33 -120 -3 -66 0 -83 21
-122 33 -63 92 -102 161 -108 79 -6 117 4 164 44 l42 36 0 -41 c0 -37 2 -41
25 -41 l25 0 0 310 0 310 -25 0 -25 0 0 -125z m-72 -132 c42 -31 65 -78 65
-136 1 -104 -55 -168 -152 -175 -65 -4 -109 19 -149 78 -20 30 -23 45 -20 100
4 75 27 117 80 144 45 23 138 17 176 -11z"/>
<path d="M8287 1024 c-12 -13 -8 -51 8 -64 9 -7 25 -10 40 -6 22 6 26 11 23
39 -3 28 -7 32 -33 35 -17 2 -34 0 -38 -4z"/>
<path d="M8520 720 l0 -310 25 0 25 0 0 310 0 310 -25 0 -25 0 0 -310z"/>
<path d="M5689 986 c-106 -28 -200 -113 -241 -215 -17 -44 -22 -77 -22 -151 0
-86 3 -101 31 -162 17 -36 50 -85 73 -108 83 -83 219 -122 347 -100 80 13 109
29 100 53 -5 14 -11 15 -34 6 -137 -52 -296 -18 -390 83 -53 59 -83 139 -83
227 0 144 59 245 177 303 63 31 74 33 169 33 96 0 105 -2 170 -35 85 -43 135
-105 160 -197 28 -105 6 -235 -45 -263 -28 -14 -38 -13 -61 10 -18 18 -20 33
-20 190 l0 170 -25 0 c-22 0 -25 -4 -25 -36 l0 -36 -35 30 c-147 130 -370 -3
-340 -202 16 -105 98 -176 203 -176 64 0 98 13 140 53 25 24 32 27 32 14 0
-34 45 -67 92 -67 84 0 129 64 136 196 10 184 -80 322 -247 374 -72 23 -190
26 -262 6z m184 -210 c90 -38 123 -161 67 -251 -56 -91 -197 -92 -264 -2 -31
42 -30 159 1 203 42 59 126 80 196 50z"/>
<path d="M320 839 c-84 -34 -131 -107 -132 -206 0 -82 30 -145 91 -188 40 -28
49 -30 131 -30 83 0 90 2 126 31 46 37 51 49 25 64 -17 9 -25 7 -44 -11 -45
-42 -122 -52 -184 -22 -107 50 -120 223 -22 295 53 39 157 36 203 -7 23 -21
30 -23 46 -12 11 6 20 14 20 18 0 12 -56 58 -83 68 -35 13 -143 13 -177 0z"/>
<path d="M1178 830 c-160 -85 -151 -335 14 -405 50 -20 143 -19 193 4 164 74
167 319 4 402 -52 26 -160 26 -211 -1z m217 -70 c43 -42 59 -87 53 -152 -9
-84 -65 -139 -150 -145 -120 -9 -201 95 -169 216 23 86 77 124 168 119 55 -4
67 -8 98 -38z"/>
<path d="M1630 630 l0 -220 30 0 30 0 0 133 c0 118 3 138 23 177 26 53 72 80
135 80 57 0 96 -21 116 -64 12 -27 16 -66 16 -180 l0 -146 30 0 30 0 0 153 c0
139 -2 157 -22 197 -33 65 -76 90 -154 90 -73 0 -109 -11 -146 -48 l-28 -26 0
37 c0 34 -2 37 -30 37 l-30 0 0 -220z"/>
<path d="M2840 827 c-25 -13 -58 -43 -75 -66 -25 -36 -30 -54 -33 -116 -4 -66
-1 -79 24 -125 40 -74 104 -110 195 -110 82 0 141 28 184 89 26 37 30 53 33
119 4 95 -21 151 -86 197 -38 26 -54 30 -120 33 -66 3 -83 0 -122 -21z m200
-50 c48 -32 73 -79 73 -140 1 -104 -55 -168 -152 -175 -65 -4 -109 19 -149 78
-20 30 -23 45 -20 100 4 75 28 117 80 143 49 25 128 22 168 -6z"/>
<path d="M3300 630 l0 -220 29 0 30 0 3 155 3 155 38 37 c36 37 40 38 107 38
62 0 73 -3 95 -26 36 -35 44 -81 45 -231 l0 -128 25 0 25 0 0 163 c0 149 -2
165 -23 201 -30 53 -76 76 -155 76 -66 0 -138 -27 -149 -55 -10 -27 -23 -15
-23 20 0 31 -3 35 -25 35 l-25 0 0 -220z"/>
<path d="M3938 830 c-160 -85 -151 -335 14 -405 50 -20 143 -19 193 4 164 74
167 319 4 402 -52 26 -160 26 -211 -1z m217 -70 c43 -42 59 -87 53 -152 -9
-84 -65 -139 -150 -145 -120 -9 -201 95 -169 216 23 86 77 124 168 119 55 -4
67 -8 98 -38z"/>
<path d="M4570 630 l0 -220 30 0 30 0 0 135 c0 148 8 182 55 225 22 21 36 25
90 25 53 0 67 -4 89 -24 37 -35 46 -79 46 -228 l0 -133 24 0 c24 0 24 0 28
143 4 159 15 193 71 227 39 24 107 26 148 4 49 -25 59 -64 59 -229 l0 -145 31
0 31 0 -4 169 c-3 188 -7 200 -78 249 -66 44 -211 22 -254 -40 l-15 -22 -22
27 c-32 41 -71 57 -141 57 -64 0 -117 -21 -145 -58 -11 -13 -13 -10 -13 21 0
34 -2 37 -30 37 l-30 0 0 -220z"/>
<path d="M6405 833 c-81 -42 -118 -105 -117 -198 1 -122 89 -205 217 -205 65
0 109 16 148 55 l27 28 0 -49 c-1 -66 -30 -128 -71 -150 -51 -26 -145 -22
-214 10 -54 25 -58 25 -71 9 -31 -41 81 -89 202 -87 92 1 148 30 184 94 24 44
25 51 28 278 l4 232 -31 0 c-29 0 -31 -2 -31 -37 l0 -36 -22 20 c-13 11 -37
28 -55 37 -42 21 -157 21 -198 -1z m195 -55 c57 -39 75 -72 75 -138 0 -92 -54
-150 -148 -158 -122 -10 -212 95 -176 206 23 74 78 112 160 112 42 0 65 -6 89
-22z"/>
<path d="M6900 630 l0 -220 29 0 29 0 4 148 c2 122 6 153 21 175 54 83 187 90
238 13 10 -15 15 -64 17 -178 l4 -158 29 0 29 0 0 143 c0 119 3 148 18 176 46
86 184 97 232 19 18 -29 20 -51 20 -185 l0 -153 30 0 30 0 0 158 c0 144 -2
162 -22 202 -30 58 -73 80 -158 80 -69 0 -118 -20 -152 -63 l-17 -22 -21 28
c-32 41 -72 57 -140 57 -66 0 -90 -9 -132 -48 l-28 -26 0 37 c0 34 -2 37 -30
37 l-30 0 0 -220z"/>
<path d="M7822 825 c-48 -22 -52 -27 -42 -45 13 -24 8 -24 61 0 52 23 138 26
178 6 31 -17 51 -54 51 -96 l0 -30 -87 0 c-153 0 -211 -30 -220 -113 -10 -86
48 -137 155 -137 66 0 92 9 130 43 l22 20 0 -31 c0 -29 3 -32 30 -32 l30 0 0
158 c0 144 -2 162 -22 202 -30 60 -72 80 -163 80 -53 0 -83 -6 -123 -25z m248
-249 c0 -33 -7 -52 -26 -75 -46 -55 -152 -65 -201 -18 -46 42 -18 118 47 130
14 2 60 5 103 6 l77 1 0 -44z"/>
<path d="M8290 630 l0 -220 30 0 30 0 0 220 0 220 -30 0 -30 0 0 -220z"/>
<path d="M8989 827 c-24 -13 -57 -43 -74 -66 -25 -36 -30 -54 -33 -115 -3 -59
0 -81 17 -114 41 -81 109 -121 205 -122 99 0 197 62 151 96 -15 11 -23 9 -52
-13 -51 -39 -135 -44 -183 -11 -55 38 -80 82 -80 145 0 101 50 162 141 171 61
6 90 -2 127 -33 25 -21 32 -22 47 -11 14 10 15 17 6 33 -32 62 -188 84 -272
40z"/>
<path d="M9475 833 c-103 -54 -147 -160 -114 -276 14 -52 71 -112 124 -133 68
-26 163 -16 217 22 136 95 123 310 -23 384 -48 25 -160 27 -204 3z m186 -56
c41 -27 79 -98 79 -147 0 -45 -37 -118 -73 -144 -40 -30 -144 -30 -183 0 -61
45 -85 109 -70 189 8 38 57 102 90 115 43 18 121 11 157 -13z"/>
<path d="M9920 630 l0 -220 30 0 30 0 0 135 c0 148 8 182 55 225 22 21 36 25
90 25 53 0 67 -4 89 -24 37 -35 46 -79 46 -228 l0 -133 24 0 c24 0 24 0 28
143 4 159 15 193 71 227 39 24 107 26 148 4 49 -25 59 -64 59 -229 l0 -145 31
0 31 0 -4 169 c-3 188 -7 200 -78 249 -66 44 -211 22 -254 -40 l-15 -22 -22
27 c-32 41 -71 57 -141 57 -64 0 -117 -21 -145 -58 -11 -13 -13 -10 -13 21 0
34 -2 37 -30 37 l-30 0 0 -220z"/>
<path d="M675 480 c-37 -41 24 -97 63 -58 18 18 14 56 -7 68 -27 14 -35 13
-56 -10z"/>
<path d="M4371 486 c-7 -8 -11 -27 -9 -43 2 -23 9 -29 32 -31 16 -2 32 2 37
10 15 23 10 57 -10 68 -26 14 -36 13 -50 -4z"/>
<path d="M8715 480 c-37 -41 24 -97 63 -58 18 18 14 56 -7 68 -27 14 -35 13
-56 -10z"/>
</g>
</svg>
