<svg xmlns="http://www.w3.org/2000/svg" id="canvas" viewBox="187.101 179.810 843.460 112.422"><path d="M 262.85,193.51 C 262.54 192.64, 261.99 191.97, 260.56 191.38 C 259.13 190.80, 258.02 190.43, 255.70 190.60 C 253.39 190.78, 251.86 190.94, 248.98 192.28 C 246.10 193.61, 244.71 194.77, 241.29 197.29 C 237.86 199.81, 235.84 201.36, 231.86 204.87 C 227.88 208.37, 225.61 210.38, 221.38 214.82 C 217.15 219.25, 214.70 221.91, 210.69 227.05 C 206.69 232.20, 204.58 235.18, 201.34 240.55 C 198.10 245.91, 196.60 248.73, 194.48 253.86 C 192.37 258.99, 191.55 261.65, 190.76 266.19 C 189.98 270.73, 189.87 272.92, 190.55 276.56 C 191.23 280.19, 191.95 281.95, 194.17 284.37 C 196.38 286.78, 198.14 287.76, 201.61 288.63 C 205.08 289.50, 207.22 289.33, 211.51 288.73 C 215.80 288.13, 218.17 287.35, 223.05 285.62 C 227.93 283.90, 230.67 282.64, 235.91 280.11 C 241.15 277.57, 244.04 275.91, 249.25 272.94 C 254.47 269.97, 257.18 268.25, 261.98 265.25 C 266.79 262.25, 269.18 260.61, 273.27 257.93 C 277.36 255.25, 279.31 253.96, 282.43 251.85 C 285.55 249.74, 286.99 248.99, 288.87 247.36 C 290.74 245.73, 291.24 244.97, 291.82 243.70 C 292.39 242.43, 292.27 241.87, 291.73 241.02 C 291.19 240.17, 290.37 239.64, 289.12 239.44 C 287.87 239.25, 286.92 239.39, 285.48 240.03 C 284.04 240.66, 283.46 241.36, 281.94 242.62 C 280.42 243.89, 279.60 244.65, 277.89 246.35 C 276.18 248.06, 275.16 249.04, 273.38 251.15 C 271.61 253.26, 270.72 254.52, 269.02 256.91 C 267.31 259.30, 266.31 260.61, 264.85 263.09 C 263.40 265.57, 262.59 266.96, 261.75 269.31 C 260.90 271.66, 260.58 272.89, 260.63 274.84 C 260.69 276.79, 261.01 277.76, 262.03 279.04 C 263.05 280.32, 263.93 280.89, 265.74 281.22 C 267.54 281.56, 268.81 281.49, 271.07 280.72 C 273.32 279.95, 274.62 279.19, 277.00 277.38 C 279.37 275.56, 280.50 274.09, 282.95 271.62 C 285.40 269.16, 286.79 267.73, 289.24 265.07 C 291.70 262.40, 293.09 260.88, 295.23 258.30 C 297.37 255.71, 298.83 254.34, 299.94 252.13 C 301.06 249.93, 301.13 248.60, 300.81 247.28 C 300.50 245.97, 299.72 245.56, 298.36 245.53 C 296.99 245.51, 295.72 245.84, 294.01 247.15 C 292.29 248.45, 291.13 249.75, 289.79 252.07 C 288.44 254.38, 288.00 256.15, 287.29 258.72 C 286.58 261.30, 286.22 262.64, 286.24 264.93 C 286.27 267.23, 286.41 268.45, 287.42 270.20 C 288.42 271.95, 289.31 272.82, 291.25 273.69 C 293.19 274.57, 294.52 274.81, 297.13 274.57 C 299.73 274.32, 301.30 273.77, 304.27 272.48 C 307.24 271.18, 308.79 270.05, 311.98 268.09 C 315.16 266.12, 316.95 264.85, 320.20 262.64 C 323.45 260.44, 325.28 259.09, 328.21 257.07 C 331.14 255.04, 332.76 254.14, 334.84 252.52 C 336.92 250.90, 337.74 250.02, 338.61 248.97 C 339.48 247.92, 339.55 247.47, 339.21 247.26 C 338.88 247.06, 338.10 247.13, 336.94 247.97 C 335.78 248.81, 334.81 249.66, 333.40 251.46 C 331.99 253.26, 331.22 254.72, 329.88 256.97 C 328.54 259.23, 327.66 260.61, 326.70 262.72 C 325.74 264.84, 325.18 265.98, 325.06 267.56 C 324.95 269.14, 325.26 269.91, 326.13 270.64 C 327.00 271.36, 327.84 271.55, 329.41 271.18 C 330.98 270.80, 332.08 270.31, 333.98 268.77 C 335.89 267.24, 336.81 265.77, 338.94 263.50 C 341.07 261.23, 342.24 259.78, 344.62 257.43 C 347.00 255.07, 348.38 253.84, 350.84 251.73 C 353.30 249.62, 354.62 248.65, 356.90 246.87 C 359.18 245.09, 360.20 244.28, 362.24 242.83 C 364.28 241.38, 365.23 240.75, 367.12 239.64 C 369.00 238.53, 369.81 238.12, 371.67 237.27 C 373.54 236.42, 374.41 236.18, 376.42 235.40 C 378.44 234.62, 379.51 234.33, 381.74 233.36 C 383.97 232.38, 385.12 231.91, 387.56 230.53 C 390.01 229.16, 391.28 228.33, 393.97 226.48 C 396.65 224.63, 398.14 223.53, 400.99 221.29 C 403.85 219.04, 405.40 217.78, 408.24 215.27 C 411.08 212.75, 412.57 211.31, 415.19 208.70 C 417.81 206.08, 419.20 204.72, 421.33 202.19 C 423.47 199.65, 424.57 198.39, 425.86 196.01 C 427.14 193.64, 427.56 192.38, 427.76 190.32 C 427.96 188.27, 427.77 187.17, 426.87 185.73 C 425.96 184.28, 425.02 183.53, 423.21 183.09 C 421.40 182.66, 420.11 182.66, 417.82 183.55 C 415.52 184.45, 414.24 185.33, 411.72 187.56 C 409.20 189.79, 407.99 191.39, 405.22 194.69 C 402.45 197.99, 400.85 199.98, 397.88 204.07 C 394.91 208.16, 393.22 210.54, 390.35 215.16 C 387.49 219.78, 386.00 222.40, 383.54 227.19 C 381.07 231.98, 379.85 234.53, 378.02 239.13 C 376.18 243.72, 375.39 246.08, 374.36 250.18 C 373.32 254.28, 372.82 256.23, 372.84 259.62 C 372.87 263.00, 373.21 264.61, 374.50 267.10 C 375.79 269.59, 376.95 270.67, 379.30 272.06 C 381.65 273.44, 383.18 273.93, 386.25 274.03 C 389.32 274.13, 391.10 273.62, 394.63 272.56 C 398.16 271.50, 400.14 270.56, 403.90 268.73 C 407.67 266.89, 409.70 265.61, 413.46 263.38 C 417.22 261.15, 419.25 259.79, 422.70 257.56 C 426.16 255.33, 427.94 254.14, 430.73 252.22 C 433.52 250.30, 434.84 249.48, 436.64 247.98 C 438.43 246.48, 439.06 245.80, 439.71 244.72 C 440.35 243.65, 440.25 243.20, 439.86 242.59 C 439.48 241.98, 438.78 241.71, 437.76 241.66 C 436.74 241.61, 436.12 241.62, 434.76 242.35 C 433.40 243.08, 432.57 243.77, 430.96 245.31 C 429.35 246.86, 428.35 247.96, 426.72 250.07 C 425.09 252.18, 424.20 253.52, 422.83 255.86 C 421.46 258.21, 420.64 259.45, 419.88 261.79 C 419.13 264.13, 418.88 265.48, 419.05 267.56 C 419.22 269.64, 419.61 270.69, 420.73 272.20 C 421.84 273.72, 422.73 274.43, 424.60 275.14 C 426.48 275.86, 427.76 276.00, 430.10 275.79 C 432.45 275.58, 433.81 275.17, 436.34 274.10 C 438.87 273.03, 440.30 272.19, 442.74 270.45 C 445.18 268.71, 446.48 267.55, 448.54 265.38 C 450.59 263.22, 451.63 261.98, 453.02 259.63 C 454.41 257.27, 455.02 255.97, 455.50 253.60 C 455.98 251.22, 455.94 249.92, 455.41 247.74 C 454.88 245.56, 454.30 244.39, 452.85 242.71 C 451.41 241.03, 450.22 240.23, 448.19 239.34 C 446.16 238.46, 444.74 238.24, 442.69 238.28 C 440.64 238.32, 439.43 238.61, 437.96 239.54 C 436.49 240.46, 435.72 241.42, 435.36 242.91 C 435.00 244.41, 435.18 245.62, 436.16 247.01 C 437.13 248.40, 438.11 249.11, 440.24 249.87 C 442.38 250.63, 443.85 250.90, 446.84 250.80 C 449.82 250.70, 451.60 250.05, 455.19 249.37 C 458.78 248.70, 460.84 248.27, 464.80 247.43 C 468.75 246.60, 471.02 246.05, 474.98 245.20 C 478.93 244.34, 481.00 243.82, 484.57 243.15 C 488.14 242.49, 489.96 242.29, 492.82 241.88 C 495.68 241.47, 497.00 241.26, 498.86 241.09 C 500.71 240.91, 501.30 240.83, 502.08 240.99 C 502.87 241.16, 502.90 241.31, 502.79 241.92 C 502.67 242.54, 502.26 242.89, 501.52 244.07 C 500.77 245.24, 500.20 246.08, 499.05 247.81 C 497.91 249.55, 497.19 250.70, 495.79 252.74 C 494.38 254.77, 493.52 255.97, 492.02 257.99 C 490.51 260.02, 489.68 261.03, 488.26 262.86 C 486.85 264.69, 486.09 265.55, 484.95 267.12 C 483.82 268.70, 483.22 269.38, 482.59 270.73 C 481.96 272.07, 481.81 272.82, 481.80 273.82 C 481.78 274.83, 482.06 275.32, 482.50 275.74 C 482.94 276.16, 483.50 276.05, 484.00 275.92 C 484.51 275.78, 484.49 275.54, 485.04 275.05 C 485.59 274.56, 485.90 274.36, 486.74 273.46 C 487.58 272.56, 488.04 271.93, 489.25 270.57 C 490.47 269.21, 491.26 268.38, 492.81 266.66 C 494.36 264.93, 495.29 263.95, 496.99 261.95 C 498.69 259.96, 499.71 258.83, 501.30 256.69 C 502.89 254.54, 503.80 253.40, 504.92 251.24 C 506.05 249.07, 506.61 247.91, 506.93 245.87 C 507.26 243.83, 507.19 242.68, 506.54 241.03 C 505.90 239.39, 505.23 238.60, 503.70 237.65 C 502.16 236.69, 501.20 236.44, 498.87 236.26 C 496.53 236.07, 495.08 236.24, 492.03 236.72 C 488.99 237.21, 487.23 237.85, 483.63 238.68 C 480.04 239.52, 477.99 240.05, 474.06 240.89 C 470.12 241.72, 467.85 242.23, 463.95 242.85 C 460.04 243.47, 457.96 243.79, 454.52 243.99 C 451.09 244.19, 449.37 243.88, 446.77 243.83 C 444.17 243.78, 443.10 243.77, 441.51 243.75 C 439.92 243.74, 439.46 243.68, 438.84 243.75 C 438.21 243.83, 438.20 244.01, 438.39 244.13 C 438.58 244.26, 438.96 244.32, 439.80 244.37 C 440.64 244.42, 441.32 244.27, 442.57 244.38 C 443.82 244.48, 444.76 244.50, 446.05 244.89 C 447.34 245.29, 448.11 245.55, 449.02 246.35 C 449.94 247.16, 450.33 247.71, 450.63 248.91 C 450.93 250.11, 450.99 250.85, 450.51 252.36 C 450.02 253.86, 449.49 254.74, 448.20 256.45 C 446.92 258.16, 445.93 259.18, 444.08 260.90 C 442.23 262.62, 441.04 263.62, 438.96 265.05 C 436.87 266.48, 435.63 267.13, 433.65 268.06 C 431.68 269.00, 430.65 269.28, 429.08 269.73 C 427.52 270.18, 426.81 270.31, 425.81 270.31 C 424.82 270.31, 424.49 270.27, 424.11 269.74 C 423.73 269.21, 423.67 268.80, 423.91 267.66 C 424.14 266.51, 424.40 265.66, 425.28 264.01 C 426.17 262.36, 426.95 261.32, 428.33 259.43 C 429.70 257.54, 430.60 256.33, 432.17 254.56 C 433.73 252.80, 434.73 252.03, 436.16 250.60 C 437.58 249.17, 438.45 248.63, 439.28 247.41 C 440.11 246.19, 440.23 245.53, 440.31 244.49 C 440.39 243.45, 440.24 242.76, 439.68 242.23 C 439.13 241.70, 438.74 241.50, 437.52 241.84 C 436.30 242.18, 435.50 242.62, 433.58 243.92 C 431.66 245.22, 430.57 246.33, 427.92 248.35 C 425.28 250.36, 423.66 251.73, 420.34 254.01 C 417.02 256.29, 415.00 257.63, 411.33 259.74 C 407.66 261.86, 405.61 263.03, 402.00 264.60 C 398.38 266.17, 396.41 266.82, 393.26 267.60 C 390.12 268.37, 388.64 268.39, 386.28 268.47 C 383.91 268.54, 383.01 268.65, 381.44 267.98 C 379.87 267.30, 379.26 266.79, 378.44 265.11 C 377.62 263.42, 377.40 262.36, 377.33 259.54 C 377.25 256.73, 377.29 254.86, 378.06 251.02 C 378.83 247.18, 379.51 244.82, 381.18 240.35 C 382.85 235.88, 384.02 233.35, 386.42 228.67 C 388.82 224.00, 390.30 221.42, 393.19 216.96 C 396.08 212.49, 397.79 210.18, 400.86 206.34 C 403.93 202.51, 405.63 200.62, 408.55 197.79 C 411.48 194.95, 413.11 193.95, 415.49 192.17 C 417.87 190.40, 418.96 189.89, 420.46 188.91 C 421.97 187.92, 422.35 187.55, 423.02 187.23 C 423.69 186.91, 423.77 186.89, 423.84 187.32 C 423.91 187.74, 423.89 188.15, 423.37 189.35 C 422.85 190.56, 422.44 191.42, 421.24 193.33 C 420.03 195.25, 419.24 196.54, 417.35 198.95 C 415.46 201.36, 414.25 202.83, 411.81 205.38 C 409.36 207.93, 407.90 209.33, 405.13 211.71 C 402.37 214.09, 400.82 215.26, 397.99 217.28 C 395.16 219.31, 393.65 220.24, 390.98 221.83 C 388.31 223.43, 386.99 223.99, 384.66 225.24 C 382.32 226.50, 381.38 227.09, 379.31 228.09 C 377.24 229.10, 376.28 229.41, 374.30 230.28 C 372.32 231.16, 371.39 231.51, 369.42 232.46 C 367.44 233.41, 366.50 233.86, 364.44 235.05 C 362.38 236.23, 361.30 236.87, 359.12 238.38 C 356.94 239.90, 355.88 240.75, 353.54 242.62 C 351.20 244.48, 349.96 245.59, 347.43 247.73 C 344.89 249.87, 343.50 251.13, 340.88 253.32 C 338.27 255.51, 336.74 256.65, 334.35 258.68 C 331.96 260.71, 330.53 261.68, 328.95 263.45 C 327.36 265.23, 326.86 266.26, 326.41 267.56 C 325.96 268.87, 326.16 269.57, 326.68 269.99 C 327.20 270.41, 327.87 270.42, 329.01 269.67 C 330.14 268.93, 330.89 267.99, 332.34 266.27 C 333.79 264.54, 334.75 263.22, 336.25 261.05 C 337.74 258.88, 338.78 257.59, 339.81 255.40 C 340.85 253.22, 341.33 251.94, 341.44 250.12 C 341.54 248.30, 341.29 247.25, 340.36 246.32 C 339.43 245.39, 338.55 245.16, 336.79 245.49 C 335.03 245.82, 333.87 246.43, 331.57 247.95 C 329.27 249.46, 328.11 250.92, 325.30 253.07 C 322.49 255.21, 320.71 256.56, 317.53 258.66 C 314.36 260.76, 312.53 261.94, 309.41 263.56 C 306.28 265.18, 304.58 265.75, 301.92 266.76 C 299.26 267.77, 297.98 268.12, 296.13 268.63 C 294.27 269.14, 293.62 269.36, 292.63 269.31 C 291.64 269.26, 291.38 269.11, 291.17 268.37 C 290.96 267.63, 291.07 267.03, 291.57 265.61 C 292.06 264.18, 292.58 263.15, 293.65 261.25 C 294.71 259.35, 295.77 258.14, 296.90 256.13 C 298.03 254.12, 298.68 252.90, 299.28 251.18 C 299.88 249.46, 300.08 248.49, 299.91 247.53 C 299.75 246.56, 299.39 246.08, 298.45 246.37 C 297.51 246.65, 296.70 247.26, 295.20 248.96 C 293.71 250.66, 292.92 252.36, 290.97 254.88 C 289.01 257.39, 287.80 259.01, 285.44 261.52 C 283.07 264.03, 281.63 265.37, 279.13 267.43 C 276.62 269.49, 275.06 270.31, 272.91 271.82 C 270.76 273.33, 269.84 274.01, 268.37 275.00 C 266.90 275.98, 266.30 276.30, 265.56 276.74 C 264.82 277.17, 264.74 277.42, 264.67 277.17 C 264.61 276.92, 264.78 276.58, 265.26 275.48 C 265.74 274.37, 266.08 273.47, 267.07 271.65 C 268.06 269.83, 268.79 268.58, 270.21 266.38 C 271.63 264.18, 272.53 262.83, 274.15 260.64 C 275.78 258.44, 276.66 257.29, 278.33 255.38 C 280.00 253.47, 280.91 252.59, 282.50 251.08 C 284.08 249.58, 284.93 248.94, 286.25 247.86 C 287.58 246.78, 288.23 246.57, 289.13 245.70 C 290.03 244.84, 290.40 244.37, 290.74 243.54 C 291.08 242.72, 291.08 241.99, 290.82 241.58 C 290.55 241.17, 290.39 241.08, 289.41 241.51 C 288.43 241.95, 287.79 242.33, 285.92 243.76 C 284.06 245.18, 282.98 246.34, 280.08 248.63 C 277.17 250.92, 275.34 252.39, 271.40 255.21 C 267.46 258.02, 265.10 259.68, 260.38 262.71 C 255.65 265.73, 252.95 267.44, 247.78 270.35 C 242.62 273.25, 239.73 274.86, 234.55 277.23 C 229.38 279.60, 226.62 280.73, 221.91 282.21 C 217.20 283.68, 214.84 284.20, 211.00 284.61 C 207.16 285.01, 205.41 284.89, 202.69 284.24 C 199.97 283.58, 199.05 283.02, 197.40 281.33 C 195.74 279.63, 195.08 278.69, 194.42 275.77 C 193.76 272.84, 193.53 270.87, 194.09 266.71 C 194.65 262.55, 195.29 259.91, 197.22 254.96 C 199.14 250.01, 200.57 247.21, 203.71 241.97 C 206.84 236.74, 208.92 233.78, 212.89 228.78 C 216.86 223.77, 219.30 221.18, 223.56 216.95 C 227.81 212.72, 230.11 210.79, 234.15 207.62 C 238.19 204.45, 240.33 203.02, 243.76 201.10 C 247.19 199.17, 248.74 198.86, 251.29 198.00 C 253.84 197.15, 254.78 197.15, 256.49 196.82 C 258.20 196.49, 258.73 196.55, 259.85 196.34 C 260.97 196.12, 261.49 196.31, 262.09 195.74 C 262.69 195.18, 263.15 194.38, 262.85 193.51" style="stroke: black; fill: black;"/><path d="M 610.34,200.18 C 609.52 200.40, 609.21 200.75, 608.22 202.00 C 607.23 203.24, 606.53 203.96, 605.38 206.43 C 604.23 208.90, 604.01 210.78, 602.46 214.37 C 600.91 217.95, 599.86 220.19, 597.63 224.36 C 595.40 228.52, 593.95 230.85, 591.31 235.18 C 588.67 239.51, 587.10 241.84, 584.43 246.00 C 581.76 250.16, 580.29 252.37, 577.96 255.98 C 575.63 259.58, 574.11 261.15, 572.77 264.02 C 571.43 266.89, 571.11 268.25, 571.28 270.34 C 571.45 272.42, 572.02 273.34, 573.61 274.45 C 575.21 275.56, 576.54 276.08, 579.26 275.90 C 581.98 275.72, 583.64 274.82, 587.21 273.55 C 590.78 272.28, 592.91 271.19, 597.11 269.56 C 601.31 267.93, 603.78 266.95, 608.20 265.41 C 612.62 263.87, 615.05 263.00, 619.20 261.84 C 623.34 260.68, 625.45 260.21, 628.92 259.61 C 632.40 259.01, 633.94 259.15, 636.56 258.83 C 639.18 258.51, 640.26 258.38, 642.04 258.02 C 643.81 257.66, 644.74 257.58, 645.43 257.02 C 646.12 256.47, 646.17 255.84, 645.48 255.26 C 644.78 254.67, 643.86 254.39, 641.97 254.08 C 640.08 253.78, 638.80 253.49, 636.02 253.75 C 633.23 254.01, 631.62 254.51, 628.04 255.38 C 624.46 256.24, 622.33 256.81, 618.11 258.08 C 613.89 259.34, 611.43 260.23, 606.94 261.70 C 602.45 263.16, 599.93 264.08, 595.66 265.42 C 591.38 266.75, 589.04 267.42, 585.57 268.39 C 582.10 269.37, 580.44 269.64, 578.30 270.29 C 576.16 270.94, 575.59 271.60, 574.87 271.66 C 574.14 271.73, 574.23 271.73, 574.67 270.63 C 575.11 269.52, 575.74 268.66, 577.07 266.14 C 578.39 263.61, 579.22 261.65, 581.29 258.00 C 583.36 254.35, 584.81 252.07, 587.42 247.89 C 590.03 243.70, 591.61 241.37, 594.35 237.07 C 597.10 232.77, 598.61 230.45, 601.13 226.38 C 603.66 222.30, 604.90 220.13, 606.98 216.70 C 609.06 213.27, 610.37 211.81, 611.52 209.22 C 612.67 206.64, 612.56 205.44, 612.72 203.78 C 612.88 202.12, 612.80 201.63, 612.32 200.91 C 611.85 200.19, 611.16 199.97, 610.34 200.18" style="stroke: black; fill: black;"/><path d="M 670.92,246.91 C 671.80 246.53, 672.36 245.84, 672.61 244.71 C 672.85 243.58, 672.81 242.62, 672.14 241.27 C 671.47 239.93, 670.76 238.92, 669.27 237.99 C 667.77 237.06, 666.75 236.76, 664.66 236.63 C 662.56 236.51, 661.32 236.53, 658.81 237.37 C 656.30 238.22, 654.78 239.00, 652.11 240.85 C 649.44 242.70, 648.02 244.12, 645.46 246.63 C 642.89 249.15, 641.47 250.64, 639.29 253.43 C 637.11 256.22, 635.83 257.77, 634.54 260.58 C 633.25 263.40, 632.90 265.00, 632.86 267.50 C 632.81 270.00, 633.13 271.27, 634.31 273.09 C 635.49 274.91, 636.56 275.79, 638.77 276.59 C 640.97 277.39, 642.53 277.55, 645.34 277.09 C 648.14 276.62, 649.79 275.84, 652.79 274.26 C 655.78 272.67, 657.39 271.43, 660.32 269.16 C 663.26 266.88, 664.85 265.43, 667.47 262.89 C 670.10 260.34, 671.51 258.97, 673.45 256.44 C 675.40 253.91, 676.18 252.47, 677.19 250.24 C 678.20 248.01, 678.34 246.89, 678.51 245.29 C 678.67 243.69, 678.42 242.96, 678.01 242.25 C 677.59 241.53, 676.88 241.38, 676.42 241.70 C 675.95 242.02, 675.38 242.93, 675.68 243.85 C 675.98 244.77, 676.55 245.57, 677.93 246.29 C 679.31 247.02, 680.39 247.17, 682.57 247.48 C 684.74 247.79, 686.13 247.78, 688.79 247.83 C 691.46 247.88, 693.12 247.80, 695.90 247.72 C 698.68 247.64, 700.25 247.51, 702.68 247.43 C 705.11 247.36, 706.44 247.24, 708.05 247.35 C 709.65 247.47, 710.17 247.51, 710.72 248.02 C 711.27 248.52, 711.21 248.83, 710.80 249.86 C 710.39 250.90, 709.77 251.62, 708.65 253.19 C 707.53 254.75, 706.51 255.80, 705.20 257.70 C 703.89 259.59, 702.74 260.80, 702.09 262.65 C 701.45 264.50, 701.44 265.75, 701.97 266.93 C 702.51 268.12, 703.14 268.59, 704.77 268.56 C 706.40 268.53, 707.77 268.21, 710.13 266.77 C 712.49 265.32, 713.78 263.53, 716.58 261.34 C 719.38 259.15, 721.09 257.72, 724.11 255.81 C 727.14 253.90, 728.99 253.08, 731.70 251.81 C 734.41 250.53, 735.79 250.04, 737.66 249.43 C 739.53 248.82, 740.15 248.71, 741.04 248.76 C 741.93 248.81, 742.08 248.97, 742.11 249.67 C 742.14 250.38, 741.66 250.91, 741.21 252.30 C 740.75 253.69, 740.25 254.71, 739.84 256.62 C 739.42 258.54, 739.13 259.81, 739.14 261.89 C 739.15 263.97, 739.13 265.22, 739.88 267.03 C 740.63 268.84, 741.27 269.80, 742.87 270.95 C 744.47 272.10, 745.53 272.54, 747.88 272.78 C 750.23 273.01, 751.71 272.93, 754.61 272.14 C 757.51 271.34, 759.09 270.33, 762.37 268.81 C 765.66 267.29, 767.51 266.32, 771.03 264.55 C 774.55 262.78, 776.51 261.67, 779.96 259.97 C 783.41 258.26, 785.24 257.40, 788.28 256.03 C 791.33 254.65, 792.85 254.15, 795.18 253.11 C 797.51 252.07, 798.51 251.61, 799.93 250.81 C 801.35 250.00, 801.84 249.79, 802.27 249.10 C 802.71 248.41, 802.55 247.97, 802.11 247.34 C 801.66 246.71, 801.09 246.16, 800.04 245.97 C 798.99 245.78, 798.28 245.88, 796.86 246.38 C 795.45 246.89, 794.71 247.45, 792.95 248.49 C 791.18 249.53, 790.09 250.13, 788.03 251.58 C 785.97 253.02, 784.75 253.91, 782.65 255.72 C 780.55 257.52, 779.38 258.59, 777.53 260.62 C 775.68 262.65, 774.68 263.81, 773.41 265.86 C 772.14 267.91, 771.55 268.99, 771.17 270.86 C 770.79 272.74, 770.86 273.77, 771.52 275.23 C 772.18 276.69, 772.88 277.48, 774.46 278.15 C 776.04 278.81, 777.22 278.98, 779.43 278.54 C 781.64 278.11, 783.00 277.66, 785.51 275.97 C 788.01 274.29, 789.19 272.79, 791.95 270.12 C 794.71 267.44, 796.27 265.87, 799.31 262.60 C 802.34 259.33, 803.98 257.43, 807.13 253.78 C 810.29 250.12, 812.00 248.11, 815.07 244.34 C 818.14 240.58, 819.72 238.54, 822.49 234.94 C 825.26 231.34, 826.60 229.52, 828.93 226.36 C 831.27 223.20, 832.45 221.77, 834.16 219.14 C 835.87 216.52, 836.77 215.33, 837.49 213.24 C 838.21 211.15, 838.32 209.91, 837.76 208.69 C 837.21 207.47, 836.29 206.86, 834.72 207.14 C 833.15 207.42, 831.77 207.95, 829.91 210.09 C 828.04 212.23, 827.38 214.24, 825.38 217.83 C 823.38 221.43, 822.10 223.79, 819.90 228.05 C 817.70 232.30, 816.41 234.74, 814.38 239.11 C 812.35 243.48, 811.25 245.80, 809.75 249.89 C 808.24 253.98, 807.42 256.02, 806.84 259.55 C 806.26 263.08, 806.18 264.78, 806.84 267.53 C 807.50 270.27, 808.27 271.56, 810.15 273.28 C 812.02 275.00, 813.43 275.71, 816.22 276.13 C 819.01 276.55, 820.84 276.25, 824.09 275.38 C 827.35 274.51, 829.06 273.49, 832.50 271.78 C 835.93 270.07, 837.79 268.89, 841.27 266.83 C 844.76 264.77, 846.63 263.53, 849.90 261.49 C 853.18 259.45, 854.90 258.39, 857.65 256.62 C 860.39 254.85, 861.73 254.04, 863.62 252.62 C 865.50 251.21, 866.18 250.56, 867.08 249.55 C 867.98 248.54, 868.14 248.21, 868.13 247.59 C 868.11 246.97, 867.67 246.73, 867.00 246.47 C 866.32 246.22, 865.76 246.00, 864.76 246.31 C 863.77 246.63, 863.18 246.97, 862.01 248.04 C 860.85 249.11, 860.23 250.07, 858.96 251.67 C 857.69 253.28, 856.95 254.22, 855.67 256.05 C 854.38 257.88, 853.59 258.90, 852.54 260.82 C 851.48 262.75, 850.95 263.77, 850.39 265.68 C 849.83 267.58, 849.61 268.60, 849.73 270.36 C 849.84 272.12, 850.07 273.07, 850.96 274.48 C 851.85 275.90, 852.61 276.64, 854.18 277.42 C 855.75 278.20, 856.85 278.42, 858.81 278.37 C 860.77 278.32, 861.91 278.01, 863.97 277.18 C 866.03 276.35, 867.15 275.67, 869.11 274.21 C 871.07 272.74, 872.12 271.78, 873.76 269.87 C 875.40 267.95, 876.19 266.80, 877.30 264.63 C 878.41 262.46, 878.85 261.25, 879.31 259.02 C 879.76 256.78, 879.89 255.56, 879.59 253.46 C 879.28 251.36, 878.84 250.20, 877.79 248.51 C 876.74 246.82, 875.79 246.03, 874.33 245.01 C 872.87 243.98, 871.87 243.48, 870.47 243.38 C 869.07 243.29, 868.08 243.67, 867.31 244.53 C 866.55 245.38, 866.25 246.51, 866.63 247.66 C 867.01 248.82, 867.65 249.59, 869.22 250.30 C 870.78 251.01, 872.01 251.18, 874.46 251.20 C 876.90 251.22, 878.42 250.85, 881.43 250.40 C 884.44 249.95, 886.21 249.50, 889.50 248.94 C 892.79 248.38, 894.67 248.01, 897.88 247.59 C 901.10 247.18, 902.82 247.06, 905.57 246.86 C 908.32 246.65, 909.78 246.54, 911.64 246.57 C 913.49 246.59, 914.15 246.56, 914.86 246.99 C 915.56 247.43, 915.45 247.71, 915.16 248.74 C 914.87 249.77, 914.35 250.50, 913.42 252.13 C 912.48 253.75, 911.74 254.86, 910.49 256.87 C 909.25 258.87, 908.31 260.10, 907.18 262.14 C 906.05 264.19, 905.23 265.33, 904.83 267.08 C 904.44 268.83, 904.51 269.87, 905.21 270.90 C 905.92 271.94, 906.69 272.35, 908.36 272.27 C 910.03 272.20, 911.26 271.87, 913.55 270.52 C 915.84 269.17, 917.07 267.64, 919.81 265.53 C 922.56 263.43, 924.23 261.99, 927.27 260.00 C 930.31 258.01, 932.14 257.01, 935.02 255.58 C 937.91 254.16, 939.48 253.67, 941.69 252.87 C 943.89 252.06, 944.77 251.74, 946.07 251.56 C 947.36 251.38, 947.76 251.50, 948.16 251.98 C 948.55 252.45, 948.32 252.78, 948.03 253.93 C 947.74 255.07, 947.22 255.92, 946.71 257.70 C 946.19 259.49, 945.76 260.73, 945.46 262.85 C 945.15 264.97, 944.89 266.26, 945.17 268.31 C 945.45 270.36, 945.71 271.53, 946.85 273.10 C 948.00 274.67, 948.88 275.45, 950.91 276.15 C 952.94 276.85, 954.32 277.04, 957.00 276.61 C 959.69 276.17, 961.20 275.38, 964.34 273.97 C 967.47 272.56, 969.27 271.44, 972.68 269.56 C 976.09 267.69, 978.03 266.50, 981.38 264.61 C 984.72 262.73, 986.52 261.72, 989.39 260.12 C 992.27 258.53, 993.78 257.87, 995.75 256.63 C 997.72 255.39, 998.45 254.80, 999.24 253.93 C 1000.04 253.06, 1000.02 252.70, 999.71 252.29 C 999.40 251.88, 998.71 251.67, 997.71 251.87 C 996.71 252.07, 995.81 252.32, 994.72 253.28 C 993.63 254.25, 993.04 255.14, 992.24 256.70 C 991.44 258.25, 991.00 259.28, 990.70 261.05 C 990.39 262.82, 990.26 263.87, 990.73 265.54 C 991.20 267.21, 991.69 268.20, 993.05 269.39 C 994.40 270.59, 995.44 271.07, 997.51 271.52 C 999.59 271.97, 1000.87 271.96, 1003.41 271.63 C 1005.96 271.31, 1007.52 270.89, 1010.22 269.88 C 1012.93 268.88, 1014.47 268.11, 1016.95 266.62 C 1019.42 265.13, 1020.69 264.24, 1022.59 262.43 C 1024.50 260.62, 1025.47 259.61, 1026.45 257.57 C 1027.43 255.53, 1027.71 254.29, 1027.49 252.24 C 1027.28 250.19, 1026.79 249.00, 1025.39 247.32 C 1023.98 245.64, 1022.84 244.83, 1020.48 243.85 C 1018.11 242.88, 1016.45 242.58, 1013.56 242.43 C 1010.66 242.28, 1008.89 242.52, 1006.01 243.11 C 1003.14 243.69, 1001.50 244.31, 999.21 245.37 C 996.91 246.43, 995.96 247.27, 994.54 248.42 C 993.13 249.57, 992.66 250.10, 992.13 251.12 C 991.60 252.14, 991.76 252.86, 991.89 253.51 C 992.03 254.17, 992.48 254.32, 992.81 254.39 C 993.14 254.46, 993.33 253.94, 993.53 253.84 C 993.74 253.75, 993.56 253.91, 993.83 253.90 C 994.10 253.89, 994.19 254.03, 994.88 253.81 C 995.57 253.58, 995.95 253.32, 997.26 252.76 C 998.57 252.21, 999.44 251.65, 1001.43 251.03 C 1003.42 250.40, 1004.83 250.02, 1007.21 249.64 C 1009.59 249.27, 1011.07 249.15, 1013.34 249.16 C 1015.62 249.17, 1016.87 249.37, 1018.59 249.71 C 1020.31 250.04, 1021.03 250.27, 1021.94 250.85 C 1022.85 251.44, 1023.10 251.79, 1023.14 252.63 C 1023.19 253.46, 1023.02 253.96, 1022.16 255.03 C 1021.29 256.09, 1020.50 256.76, 1018.83 257.96 C 1017.16 259.15, 1016.00 259.88, 1013.81 260.98 C 1011.63 262.08, 1010.22 262.65, 1007.91 263.45 C 1005.61 264.24, 1004.26 264.53, 1002.29 264.96 C 1000.32 265.40, 999.39 265.48, 998.08 265.61 C 996.77 265.73, 996.31 265.75, 995.75 265.59 C 995.20 265.42, 995.20 265.29, 995.32 264.80 C 995.43 264.30, 995.70 263.93, 996.34 263.11 C 996.99 262.30, 997.66 261.80, 998.53 260.71 C 999.41 259.63, 1000.17 258.99, 1000.73 257.69 C 1001.30 256.39, 1001.45 255.47, 1001.38 254.21 C 1001.31 252.96, 1001.11 252.17, 1000.38 251.43 C 999.66 250.69, 999.19 250.41, 997.75 250.52 C 996.31 250.63, 995.37 250.93, 993.19 251.97 C 991.01 253.01, 989.68 254.01, 986.85 255.71 C 984.01 257.41, 982.32 258.59, 979.02 260.46 C 975.73 262.33, 973.76 263.46, 970.38 265.07 C 966.99 266.68, 965.03 267.42, 962.09 268.51 C 959.15 269.60, 957.72 269.93, 955.68 270.52 C 953.63 271.12, 952.91 271.42, 951.86 271.49 C 950.82 271.56, 950.64 271.48, 950.44 270.87 C 950.23 270.26, 950.47 269.77, 950.83 268.43 C 951.18 267.10, 951.72 266.11, 952.21 264.19 C 952.70 262.28, 953.12 260.99, 953.29 258.86 C 953.46 256.74, 953.58 255.48, 953.07 253.57 C 952.57 251.67, 952.13 250.61, 950.77 249.34 C 949.40 248.07, 948.38 247.54, 946.24 247.23 C 944.10 246.91, 942.78 247.01, 940.07 247.75 C 937.37 248.50, 935.82 249.39, 932.72 250.96 C 929.61 252.52, 927.82 253.67, 924.55 255.56 C 921.27 257.46, 919.36 258.61, 916.34 260.42 C 913.32 262.23, 911.47 262.97, 909.45 264.61 C 907.43 266.26, 906.81 267.42, 906.24 268.66 C 905.68 269.89, 905.99 270.54, 906.61 270.77 C 907.24 271.00, 908.14 270.81, 909.39 269.82 C 910.64 268.84, 911.44 267.74, 912.87 265.86 C 914.30 263.98, 915.27 262.72, 916.55 260.42 C 917.82 258.13, 918.63 256.76, 919.25 254.39 C 919.87 252.03, 920.02 250.68, 919.64 248.62 C 919.27 246.55, 918.83 245.50, 917.37 244.08 C 915.92 242.65, 914.80 242.08, 912.37 241.49 C 909.94 240.89, 908.26 240.96, 905.22 241.11 C 902.18 241.26, 900.47 241.79, 897.18 242.23 C 893.88 242.67, 892.04 243.01, 888.76 243.31 C 885.49 243.60, 883.68 243.63, 880.80 243.73 C 877.92 243.82, 876.51 243.72, 874.37 243.80 C 872.23 243.87, 871.36 243.79, 870.09 244.10 C 868.82 244.40, 868.47 244.69, 868.00 245.34 C 867.54 246.00, 867.58 246.67, 867.78 247.37 C 867.97 248.07, 868.28 248.36, 868.96 248.84 C 869.64 249.32, 870.31 249.24, 871.18 249.76 C 872.06 250.28, 872.70 250.57, 873.33 251.44 C 873.96 252.31, 874.23 252.84, 874.33 254.10 C 874.43 255.35, 874.29 256.17, 873.84 257.70 C 873.40 259.24, 873.05 260.18, 872.09 261.77 C 871.14 263.36, 870.44 264.22, 869.07 265.66 C 867.70 267.09, 866.77 267.83, 865.23 268.96 C 863.69 270.09, 862.78 270.59, 861.37 271.29 C 859.95 271.99, 859.24 272.18, 858.16 272.46 C 857.08 272.75, 856.63 272.79, 855.95 272.72 C 855.28 272.65, 855.05 272.58, 854.79 272.12 C 854.53 271.67, 854.48 271.36, 854.65 270.46 C 854.82 269.56, 855.01 268.91, 855.63 267.63 C 856.26 266.35, 856.71 265.56, 857.78 264.06 C 858.84 262.56, 859.63 261.67, 860.94 260.14 C 862.26 258.60, 863.04 257.77, 864.37 256.38 C 865.70 254.99, 866.62 254.45, 867.61 253.20 C 868.59 251.95, 869.02 251.30, 869.28 250.12 C 869.55 248.94, 869.32 248.19, 868.92 247.30 C 868.52 246.41, 868.13 245.92, 867.28 245.68 C 866.43 245.43, 865.99 245.53, 864.67 246.07 C 863.34 246.61, 862.61 247.09, 860.65 248.37 C 858.68 249.65, 857.48 250.60, 854.84 252.46 C 852.20 254.32, 850.61 255.57, 847.44 257.65 C 844.27 259.73, 842.40 260.95, 838.99 262.87 C 835.58 264.78, 833.66 265.83, 830.38 267.23 C 827.11 268.64, 825.37 269.16, 822.62 269.90 C 819.87 270.65, 818.57 270.90, 816.63 270.95 C 814.69 271.00, 813.97 271.02, 812.90 270.15 C 811.83 269.27, 811.61 268.58, 811.28 266.60 C 810.94 264.61, 810.81 263.30, 811.24 260.22 C 811.67 257.15, 812.13 255.10, 813.45 251.20 C 814.76 247.30, 815.80 244.95, 817.82 240.73 C 819.85 236.51, 821.14 234.09, 823.55 230.09 C 825.97 226.08, 827.55 223.92, 829.89 220.71 C 832.23 217.51, 833.88 216.30, 835.26 214.06 C 836.64 211.82, 836.72 210.65, 836.78 209.52 C 836.83 208.39, 836.27 208.10, 835.53 208.41 C 834.79 208.72, 834.18 209.43, 833.07 211.07 C 831.96 212.70, 831.49 213.98, 829.99 216.58 C 828.49 219.17, 827.68 220.81, 825.58 224.04 C 823.49 227.27, 822.20 229.11, 819.54 232.71 C 816.88 236.32, 815.33 238.35, 812.29 242.07 C 809.24 245.78, 807.52 247.77, 804.32 251.28 C 801.13 254.80, 799.44 256.65, 796.30 259.63 C 793.16 262.61, 791.50 264.07, 788.61 266.20 C 785.73 268.33, 784.09 268.94, 781.86 270.29 C 779.64 271.63, 778.83 272.15, 777.50 272.92 C 776.17 273.70, 775.76 273.92, 775.22 274.17 C 774.68 274.43, 774.70 274.53, 774.80 274.20 C 774.90 273.87, 775.04 273.52, 775.71 272.53 C 776.39 271.55, 776.89 270.78, 778.17 269.28 C 779.44 267.78, 780.36 266.74, 782.11 265.04 C 783.85 263.34, 784.95 262.37, 786.90 260.79 C 788.85 259.21, 789.98 258.40, 791.86 257.13 C 793.74 255.86, 794.71 255.29, 796.31 254.43 C 797.90 253.56, 798.67 253.51, 799.85 252.81 C 801.03 252.11, 801.59 251.84, 802.20 250.92 C 802.81 250.01, 803.00 249.16, 802.89 248.24 C 802.78 247.33, 802.56 246.73, 801.63 246.35 C 800.71 245.97, 800.00 245.99, 798.28 246.35 C 796.55 246.72, 795.44 247.13, 793.01 248.18 C 790.59 249.23, 789.19 250.07, 786.16 251.61 C 783.14 253.14, 781.35 254.12, 777.91 255.84 C 774.47 257.57, 772.49 258.65, 768.97 260.24 C 765.46 261.82, 763.56 262.65, 760.34 263.74 C 757.11 264.84, 755.36 265.02, 752.85 265.71 C 750.33 266.40, 749.29 266.88, 747.76 267.20 C 746.23 267.52, 745.81 267.59, 745.18 267.32 C 744.56 267.05, 744.57 266.81, 744.64 265.86 C 744.71 264.91, 745.13 264.17, 745.53 262.57 C 745.93 260.98, 746.35 259.85, 746.65 257.88 C 746.95 255.92, 747.24 254.72, 747.05 252.75 C 746.85 250.78, 746.68 249.56, 745.68 248.03 C 744.68 246.50, 743.87 245.79, 742.05 245.09 C 740.23 244.40, 739.09 244.18, 736.57 244.55 C 734.05 244.92, 732.50 245.60, 729.47 246.95 C 726.44 248.31, 724.71 249.46, 721.43 251.32 C 718.15 253.19, 716.19 254.36, 713.07 256.27 C 709.94 258.18, 707.86 259.06, 705.79 260.89 C 703.71 262.72, 703.12 264.09, 702.69 265.42 C 702.26 266.75, 702.74 267.36, 703.65 267.55 C 704.55 267.75, 705.68 267.51, 707.20 266.39 C 708.73 265.28, 709.82 264.01, 711.28 261.96 C 712.73 259.91, 713.64 258.48, 714.49 256.14 C 715.35 253.80, 715.70 252.40, 715.55 250.26 C 715.40 248.12, 714.99 247.01, 713.75 245.42 C 712.51 243.83, 711.51 243.16, 709.34 242.31 C 707.18 241.45, 705.61 241.42, 702.93 241.15 C 700.24 240.88, 698.69 241.04, 695.91 240.95 C 693.14 240.86, 691.55 240.84, 689.05 240.71 C 686.56 240.57, 685.28 240.43, 683.45 240.25 C 681.61 240.07, 681.02 239.83, 679.88 239.80 C 678.75 239.77, 678.57 239.80, 677.78 240.10 C 676.99 240.41, 676.51 240.87, 675.93 241.34 C 675.36 241.80, 675.23 241.85, 674.90 242.44 C 674.56 243.03, 674.72 243.19, 674.25 244.28 C 673.77 245.36, 673.55 246.09, 672.52 247.86 C 671.49 249.63, 670.84 250.85, 669.11 253.13 C 667.39 255.40, 666.30 256.89, 663.91 259.25 C 661.53 261.60, 659.95 262.98, 657.19 264.92 C 654.43 266.85, 652.75 267.70, 650.12 268.94 C 647.49 270.17, 646.07 270.49, 644.02 271.08 C 641.97 271.68, 641.14 271.95, 639.88 271.92 C 638.61 271.89, 638.16 271.73, 637.71 270.95 C 637.26 270.17, 637.21 269.59, 637.61 268.02 C 638.01 266.45, 638.52 265.36, 639.70 263.10 C 640.89 260.84, 641.62 259.20, 643.53 256.73 C 645.44 254.25, 646.83 252.82, 649.24 250.71 C 651.66 248.61, 653.25 247.64, 655.61 246.20 C 657.98 244.76, 659.22 244.25, 661.06 243.50 C 662.89 242.75, 663.70 242.63, 664.78 242.43 C 665.87 242.24, 666.10 242.31, 666.49 242.53 C 666.88 242.76, 666.63 243.09, 666.73 243.56 C 666.83 244.03, 666.68 244.28, 666.98 244.89 C 667.28 245.50, 667.43 246.19, 668.22 246.60 C 669.01 247.00, 670.04 247.28, 670.92 246.91" style="stroke: black; fill: black;"/></svg>